<?xml version="1.0" encoding="utf-8"?>
<svg id="master-artboard" viewBox="0 0 1400 980" version="1.1" xmlns="http://www.w3.org/2000/svg" x="0px" y="0px" style="enable-background:new 0 0 1400 980;" width="1400px" height="980px"><g transform="matrix(1, 0, 0, 1, -0.000008753636393521447, 0)"><g transform="matrix(21.628301784971164, 0, 0, 21.628301784971164, 209.99999124636366, 5.684341886080802e-14)"><g>
	<path d="M22.675,0.02c-0.006,0-0.014,0.001-0.02,0.001c-0.007,0-0.013-0.001-0.02-0.001C10.135,0.02,0,10.154,0,22.656&#10;&#9;&#9;c0,12.5,10.135,22.635,22.635,22.635c0.007,0,0.013,0,0.02,0c0.006,0,0.014,0,0.02,0c12.5,0,22.635-10.135,22.635-22.635&#10;&#9;&#9;C45.311,10.154,35.176,0.02,22.675,0.02z M22.675,38.811c-0.006,0-0.014-0.001-0.02-0.001c-0.007,0-0.013,0.001-0.02,0.001&#10;&#9;&#9;c-2.046,0-3.705-1.658-3.705-3.705c0-2.045,1.659-3.703,3.705-3.703c0.007,0,0.013,0,0.02,0c0.006,0,0.014,0,0.02,0&#10;&#9;&#9;c2.045,0,3.706,1.658,3.706,3.703C26.381,37.152,24.723,38.811,22.675,38.811z M27.988,10.578&#10;&#9;&#9;c-0.242,3.697-1.932,14.692-1.932,14.692c0,1.854-1.519,3.356-3.373,3.356c-0.01,0-0.02,0-0.029,0c-0.009,0-0.02,0-0.029,0&#10;&#9;&#9;c-1.853,0-3.372-1.504-3.372-3.356c0,0-1.689-10.995-1.931-14.692C17.202,8.727,18.62,5.29,22.626,5.29&#10;&#9;&#9;c0.01,0,0.02,0.001,0.029,0.001c0.009,0,0.019-0.001,0.029-0.001C26.689,5.29,28.109,8.727,27.988,10.578z" style="fill: rgb(231, 111, 103);"/>
</g><g>
</g><g>
</g><g>
</g><g>
</g><g>
</g><g>
</g><g>
</g><g>
</g><g>
</g><g>
</g><g>
</g><g>
</g><g>
</g><g>
</g><g>
</g></g></g></svg>